<svg width="82" height="82" viewBox="0 0 82 82" fill="none" xmlns="http://www.w3.org/2000/svg">
<rect width="82" height="82" rx="20" fill="black"/>
<path d="M64.575 71.75L45.8687 53.0437L53.0437 45.8687L71.75 64.575L64.575 71.75ZM17.425 71.75L10.25 64.575L33.825 41L28.0167 35.1916L25.625 37.5833L21.2687 33.2271V40.2312L18.8771 42.6229L8.54166 32.2875L10.9333 29.8958H17.9375L13.6667 25.625L25.7958 13.4958C26.9347 12.3569 28.159 11.5312 29.4687 11.0187C30.7785 10.5062 32.1167 10.25 33.4833 10.25C34.85 10.25 36.1882 10.5062 37.4979 11.0187C38.8076 11.5312 40.0319 12.3569 41.1708 13.4958L33.3125 21.3541L37.5833 25.625L35.1917 28.0166L41 33.825L48.6875 26.1375C48.4597 25.5111 48.2752 24.8562 48.134 24.1729C47.9928 23.4896 47.921 22.8062 47.9187 22.1229C47.9187 18.7632 49.0724 15.9296 51.3798 13.6222C53.6872 11.3148 56.5196 10.1623 59.8771 10.1646C60.7312 10.1646 61.5433 10.25 62.3132 10.4208C63.083 10.5916 63.8655 10.8479 64.6604 11.1896L56.2042 19.6458L62.3542 25.7958L70.8104 17.3396C71.209 18.1368 71.4801 18.9192 71.6236 19.6868C71.7671 20.4544 71.8377 21.2664 71.8354 22.1229C71.8354 25.4826 70.6829 28.3162 68.3777 30.6236C66.0726 32.9309 63.2391 34.0835 59.8771 34.0812C59.1937 34.0812 58.5104 34.0243 57.8271 33.9104C57.1437 33.7965 56.4889 33.5972 55.8625 33.3125L17.425 71.75Z" fill="white"/>
</svg>
